<?xml version="1.0" encoding="UTF-8"?>
<svg id="Layer_8" xmlns="http://www.w3.org/2000/svg" version="1.1" viewBox="0 0 200 200">
  <!-- Generator: Adobe Illustrator 30.0.0, SVG Export Plug-In . SVG Version: 2.1.1 Build 123)  -->
  <defs>
    <style>
      .st0 {
        fill: #6f7acf;
      }

      .st1 {
        fill: #2b2551;
      }
    </style>
  </defs>
  <path class="st1" d="M100.92,115.68c19.86,14.45,46.22,26.95,46.22,26.95,3.93-4.91,5.41-9.71,4.63-17.2,0,0-21.77-9.92-40.13-23.9-14.32-10.92-26.98-23.97-39.05-37.28-12.08-13.32-22.33-27.94-29.99-44.25-3.01-6.41-5.91-13.02-7.42-19.97-4.51.02-15.28,0-19.79.02v199.74h19.77V44.67c6.31,10.35,13.52,20.19,21.35,29.57,4.91,5.87,23.88,26.49,44.41,41.43h0Z"/>
  <path class="st1" d="M164.84,0v91.73C119.64,74.52,81.82,16.75,76.51,0l-22.66.04c8.06,28.74,54.13,88.52,96.67,106.52,18.15,7.68,27.09,1.23,31.13-4.25,1.97-2.66,2.94-5.92,2.94-9.24V0h-19.77,0Z"/>
  <path class="st0" d="M85.91,132.1s-20.58.14-20.58-29.33c0,29.47-20.58,29.33-20.58,29.33,20.66,0,20.58,29.61,20.58,29.61,0,0-.08-29.61,20.58-29.61Z"/>
  <path class="st1" d="M174.69,125.01c-6.94,3.14-9.84,2.38-9.84,2.38,0,35.81-24.15,59.21-59.93,57.75-13.3-.54-28.95-8.63-39.59-16.28,11.77,16.37,32.75,31.14,54.45,31.14,35.81,0,64.84-29.03,64.84-64.84,0-7.41-.03-16.29,0-18.47,0,0-2.99,5.18-9.93,8.32h0Z"/>
</svg>