<?xml version="1.0" encoding="UTF-8"?>
<svg id="Layer_1" xmlns="http://www.w3.org/2000/svg" version="1.1" viewBox="0 0 32 32">
  <!-- Generator: Adobe Illustrator 30.0.0, SVG Export Plug-In . SVG Version: 2.1.1 Build 123)  -->
  <defs>
    <style>
      .st0 {
        fill: #6f7acf;
      }

      .st1 {
        fill: #2b2551;
      }
    </style>
  </defs>
  <g id="Layer_8">
    <g>
      <path class="st1" d="M16.15,18.53c3.18,2.32,7.4,4.32,7.4,4.32.63-.79.87-1.55.74-2.75,0,0-3.49-1.59-6.43-3.83-2.29-1.75-4.32-3.84-6.25-5.97-1.93-2.13-3.58-4.47-4.8-7.09-.48-1.03-.95-2.09-1.19-3.2h-3.17v31.99h3.17V7.15c1.01,1.66,2.16,3.23,3.42,4.74.79.94,3.82,4.24,7.11,6.63h0Z"/>
      <path class="st1" d="M26.38,0v14.69C19.15,11.93,13.09,2.68,12.24,0h-3.63c1.29,4.61,8.67,14.18,15.48,17.06,2.91,1.23,4.34.2,4.98-.68.31-.43.47-.95.47-1.48V0h-3.17.01Z"/>
      <path class="st0" d="M13.74,21.15s-3.3.02-3.3-4.7c0,4.72-3.3,4.7-3.3,4.7,3.31,0,3.3,4.74,3.3,4.74,0,0-.01-4.74,3.3-4.74Z"/>
      <path class="st1" d="M27.96,20.01c-1.11.5-1.57.38-1.57.38,0,5.72-3.87,9.46-9.6,9.23-2.13-.09-4.63-1.38-6.34-2.6,1.88,2.62,5.24,4.98,8.72,4.98,5.73,0,10.38-4.64,10.38-10.36v-2.95s-.48.83-1.59,1.33h0Z"/>
    </g>
  </g>
</svg>